<?xml version="1.0" standalone="no"?>
<!DOCTYPE svg PUBLIC "-//W3C//DTD SVG 20010904//EN"
 "http://www.w3.org/TR/2001/REC-SVG-20010904/DTD/svg10.dtd">
<svg version="1.0" xmlns="http://www.w3.org/2000/svg"
 width="1431.000000pt" height="1278.000000pt" viewBox="0 0 1431.000000 1278.000000"
 preserveAspectRatio="xMidYMid meet">

<g transform="translate(0.000000,1278.000000) scale(0.100000,-0.100000)"
fill="#000000" stroke="none">
<path d="M10820 11833 c-125 -4 -1031 -59 -1280 -78 -107 -9 -220 -20 -250
-26 -153 -29 -225 -40 -335 -49 -171 -15 -608 -74 -863 -116 -272 -44 -483
-85 -927 -180 -192 -41 -383 -81 -423 -89 -79 -15 -721 -222 -892 -287 -58
-22 -157 -59 -220 -82 -357 -133 -963 -403 -1320 -588 -722 -375 -1107 -653
-1218 -878 -35 -72 -38 -174 -5 -235 27 -52 97 -117 162 -150 74 -37 221 -74
347 -86 64 -6 536 -14 1139 -19 1042 -8 1140 -11 1430 -50 457 -62 841 -185
1103 -356 122 -79 259 -219 303 -309 31 -63 34 -77 34 -160 0 -76 -4 -99 -26
-145 -79 -168 -287 -324 -607 -455 -193 -79 -315 -120 -972 -325 -1571 -493
-2254 -757 -2860 -1108 -296 -171 -507 -336 -785 -616 -301 -303 -379 -407
-538 -716 -146 -284 -198 -419 -267 -691 -16 -61 -39 -197 -60 -348 -19 -137
-20 -206 -23 -1290 -1 -630 2 -1212 6 -1293 l9 -146 51 -7 c29 -4 2510 -9
5515 -11 4904 -4 5465 -3 5492 11 16 8 37 26 45 39 14 20 15 609 15 5394 0
4821 -1 5375 -15 5402 -8 16 -25 32 -38 35 -23 5 -1559 12 -1727 8z m1583
-375 c9 -235 9 -10102 0 -10231 l-6 -97 -5361 2 -5361 3 -3 580 c-5 843 13
1068 118 1515 46 193 106 374 196 589 188 445 365 690 703 971 95 80 279 215
382 282 175 113 531 300 754 396 77 33 214 94 305 135 140 63 440 187 455 187
2 0 80 30 172 66 335 132 964 347 1279 438 105 30 363 100 575 155 211 55 443
116 514 136 72 20 321 83 555 142 417 103 548 140 820 228 74 24 304 99 510
165 1022 332 1452 531 1715 795 112 112 157 186 177 293 45 242 -180 528 -582
736 -335 173 -782 310 -1685 516 -581 132 -896 183 -1670 270 -424 48 -528 62
-667 90 -56 12 -145 28 -195 36 -94 14 -208 55 -265 95 -36 26 -78 110 -78
158 0 144 102 232 525 451 610 315 1222 538 2075 754 296 74 524 120 655 132
39 3 131 14 205 24 433 60 713 87 1320 126 530 34 712 40 1336 42 l521 2 6
-182z"/>
</g>
</svg>
